<svg width="1519" height="299" viewBox="0 0 1519 299" fill="none" xmlns="http://www.w3.org/2000/svg">
<path d="M250.377 24.5372V13.9129C250.377 6.32403 244.295 0 236.439 0H201.468C193.865 0 187.53 6.32403 187.53 13.9129V21.5017H45.3619C27.1158 21.5017 0 33.6438 0 66.7817V253.72C0 271.933 12.1641 299 45.3619 299H232.638C250.884 299 278 286.858 278 253.72V66.7817C278 52.11 270.397 32.1261 250.377 24.5372Z" fill="#FF2636"/>
<path d="M227.422 151.664H204.748C200.214 151.664 196.435 155.453 196.435 160C196.435 164.547 200.214 168.336 204.748 168.336H227.422C231.957 168.589 235.736 164.799 235.988 160.253C236.24 155.706 232.461 151.917 227.926 151.664C227.674 151.664 227.674 151.664 227.422 151.664ZM191.396 136.76C193.16 141.055 198.198 142.823 202.229 141.055L223.14 131.708C227.422 129.94 229.186 125.141 227.422 120.846C225.659 116.552 220.872 114.784 216.589 116.552H216.337L195.427 125.898C191.396 127.667 189.632 132.466 191.396 136.76ZM188.877 116.552L204.245 99.6276C207.268 96.3438 207.016 91.0391 203.741 88.0078C200.466 84.9765 195.175 85.2292 192.152 88.513L176.784 105.438C173.761 108.721 174.013 114.026 177.288 117.057C180.815 120.341 185.853 120.089 188.877 116.552ZM166.959 220.12C165.447 215.826 160.912 213.3 156.629 214.815C151.087 216.583 145.04 217.594 138.994 217.594C107.251 217.594 81.5534 191.828 81.5534 160C81.5534 128.172 107.251 102.406 138.994 102.406C145.04 102.406 151.087 103.417 156.629 105.185C160.912 106.701 165.699 104.174 166.959 99.8802L174.013 78.1563C175.524 73.862 173.005 69.0625 168.722 67.7995C159.149 64.7682 149.071 63 138.742 63C85.3324 63 42 106.448 42 160C42 213.552 85.3324 257 138.742 257C149.071 257 159.149 255.232 168.722 252.201C173.005 250.685 175.524 246.138 174.013 241.844L166.959 220.12ZM188.877 203.448C185.853 200.164 180.563 199.911 177.288 203.195C174.013 206.227 173.761 211.279 176.784 214.563L192.152 231.487C195.175 234.771 200.466 235.023 203.741 231.74C207.016 228.708 207.268 223.656 204.245 220.372L188.877 203.448ZM223.14 188.544L202.229 179.198C197.946 177.43 193.16 179.451 191.396 183.745C189.632 187.786 191.396 192.586 195.427 194.354L216.337 203.701C220.62 205.469 225.407 203.448 227.17 199.154C228.934 195.112 227.17 190.565 223.14 188.544Z" fill="#FFFFFE"/>
<path d="M1492.17 243.747C1485.84 243.747 1480.77 238.932 1480.77 233.103V31.6432C1480.77 25.5614 1485.58 21 1492.17 21H1507.61C1513.94 21 1519 25.8148 1519 31.6432V233.103C1519 238.932 1513.68 243.747 1507.61 243.747H1492.17ZM837.778 111.467C824.614 111.467 813.222 116.028 804.109 125.405C795.249 134.274 790.692 145.677 790.692 159.108C790.692 172.539 795.249 183.942 804.109 192.811C813.222 201.934 824.614 206.749 837.778 206.749C850.688 206.749 862.08 202.188 871.193 192.811C880.307 183.689 885.117 172.285 885.117 159.108C885.117 145.931 880.56 134.527 871.193 125.405C862.08 116.282 850.688 111.467 837.778 111.467ZM837.778 244C813.982 244 793.73 235.638 777.022 219.419C760.821 203.201 752.467 182.928 752.467 159.361C752.467 135.541 760.821 115.522 777.022 99.5568C793.73 83.3386 813.982 74.9761 837.778 74.9761C861.574 74.9761 881.826 83.3386 898.28 99.5568C914.735 115.268 923.089 135.541 923.089 159.361C923.089 183.435 914.988 203.201 898.28 219.419C881.826 235.638 861.574 244 837.778 244ZM1011.18 244C991.692 244 975.744 237.665 963.339 225.501C950.682 212.831 944.353 196.613 944.353 176.847V91.7012C944.353 85.1125 949.163 80.2978 955.745 80.2978H971.187C977.516 80.2978 982.579 85.3659 982.579 91.7012V177.607C982.579 195.092 994.223 206.749 1011.44 206.749C1028.9 206.749 1040.55 195.092 1040.55 177.607V91.7012C1040.55 85.1125 1045.36 80.2978 1051.94 80.2978H1067.38C1073.71 80.2978 1078.77 85.3659 1078.77 91.7012V176.847C1078.77 196.613 1072.45 212.831 1059.79 225.501C1046.88 237.665 1030.68 244 1011.18 244ZM1152.95 244C1132.7 244 1115.23 236.905 1101.56 223.221C1095.99 217.646 1095.74 211.564 1100.8 205.735L1104.34 201.934C1107.38 198.386 1110.67 196.613 1114.22 196.613C1117.25 196.613 1120.04 197.88 1123.08 200.414C1132.95 208.523 1142.82 212.577 1152.44 212.577C1163.83 212.577 1170.67 206.242 1170.67 196.359C1170.67 186.983 1164.09 181.155 1144.09 172.285C1114.72 160.375 1099.79 143.143 1099.79 121.35C1099.79 94.4887 1122.57 74.9761 1153.96 74.9761C1168.9 74.9761 1182.06 78.7773 1194.21 86.3796C1197.25 88.4068 1199.02 91.1943 1199.53 94.4886C1200.03 98.0364 1199.02 101.838 1196.74 104.878L1193.7 109.186C1190.92 112.988 1187.63 115.015 1183.83 115.015C1181.55 115.015 1179.27 114.255 1176.74 112.734C1169.15 108.173 1162.06 105.892 1155.48 105.892C1143.33 105.892 1136.49 110.96 1136.49 120.083C1136.49 128.192 1144.59 135.288 1161.05 142.13C1193.45 156.067 1207.37 171.778 1207.37 194.585C1207.37 208.776 1202.06 220.686 1191.93 230.063C1181.81 239.439 1169.15 244 1152.95 244ZM1422.3 243.747C1415.97 243.747 1410.91 238.932 1410.91 233.103V31.6432C1410.91 25.5614 1415.72 21 1422.3 21H1437.74C1444.07 21 1449.13 25.8148 1449.13 31.6432V233.103C1449.13 238.932 1444.07 243.747 1437.74 243.747H1422.3ZM751.707 82.8318C751.454 82.5784 750.948 82.5784 750.442 82.325C744.872 79.2841 738.544 77.7637 731.709 77.7637C717.785 77.7637 706.141 84.3523 697.027 97.2762C697.027 97.2762 694.496 100.317 694.496 97.2762V90.6875C694.496 88.1534 693.483 85.8727 691.458 83.8455C689.433 81.8182 687.155 80.8046 684.623 80.8046H666.65C664.118 80.8046 661.84 81.8182 659.814 83.5921C657.789 85.3659 656.777 87.6466 656.777 90.1807V233.864C656.777 236.651 657.789 238.932 659.814 240.959C661.84 242.733 664.118 243.747 666.65 243.747H685.129C687.661 243.747 690.192 242.986 691.964 241.212C693.99 239.185 695.002 236.905 695.002 233.864V160.882C695.002 146.184 698.04 134.527 704.369 125.658C710.697 116.789 718.292 112.481 727.152 112.481C729.43 112.481 731.709 112.734 734.24 113.494C737.278 114.255 740.569 112.734 742.088 109.947L752.973 89.1671C755.251 86.8864 754.239 83.8455 751.707 82.8318ZM498.812 159.361C498.812 172.792 503.369 183.942 512.229 192.811C521.342 201.934 532.734 206.495 545.898 206.495C558.808 206.495 569.947 201.934 579.313 192.811C588.427 183.689 592.983 172.539 592.983 159.361C592.983 145.931 588.427 134.781 579.313 125.405C570.2 116.282 559.061 111.721 545.898 111.721C532.734 111.721 521.342 116.282 512.229 125.405C503.369 134.527 498.812 145.931 498.812 159.361H497.04H498.812ZM540.582 244C518.051 244 498.812 235.638 483.623 219.419C468.434 202.948 460.587 182.928 460.587 159.615C460.587 135.794 468.941 115.522 485.142 99.5568C501.85 83.3386 522.102 74.9761 545.898 74.9761C569.694 74.9761 589.946 83.3386 606.4 99.5568C622.855 115.268 631.209 135.541 631.209 159.361V232.597C631.209 238.678 625.893 244 619.817 244H606.906C600.325 244 595.768 239.692 595.768 232.343L595.262 218.659C595.262 218.406 595.009 217.645 594.249 217.645C593.743 217.645 592.983 217.899 592.224 218.913C580.073 235.384 562.606 244 540.582 244ZM1306.36 108.173C1286.36 108.173 1272.18 117.549 1264.59 135.794C1264.33 136.301 1264.33 136.808 1264.59 137.061C1264.84 137.568 1265.35 137.822 1266.1 137.822H1346.61C1347.62 137.822 1348.12 137.568 1348.12 137.568C1348.12 137.315 1348.38 136.808 1347.87 135.794C1340.28 117.042 1326.61 108.173 1306.36 108.173ZM1307.37 244C1283.57 244 1263.32 235.638 1246.61 219.419C1230.41 203.201 1222.06 182.928 1222.06 159.361C1222.06 135.794 1230.16 115.775 1246.36 99.5568C1262.56 83.3386 1282.81 74.9761 1306.36 74.9761C1329.9 74.9761 1349.9 82.8318 1365.34 98.5432C1381.03 114.001 1389.13 133.007 1389.13 155.053C1389.13 161.895 1383.82 166.71 1376.48 166.71H1262.56C1262.05 166.71 1261.55 166.71 1261.29 166.964C1261.04 167.217 1261.04 167.977 1261.04 168.991C1262.81 179.634 1267.62 188.757 1276.23 196.613C1284.84 203.961 1295.47 207.763 1307.37 207.763C1322.05 207.763 1334.2 202.188 1344.33 190.784C1347.11 187.49 1350.66 185.716 1354.45 185.716C1356.73 185.716 1359.26 186.476 1361.79 187.743L1371.41 192.305C1375.21 194.078 1377.74 197.119 1378.25 200.414C1378.76 203.455 1378 206.495 1375.72 209.03C1359.26 232.09 1335.97 244 1307.37 244ZM410.21 240.959C410.717 240.959 411.476 241.212 411.982 241.212C411.476 241.212 410.717 240.959 410.21 240.959ZM406.919 240.452C407.172 240.452 407.426 240.452 407.679 240.706C407.426 240.706 407.172 240.706 406.919 240.452ZM420.589 241.719C420.083 241.719 419.83 241.719 419.324 241.719C419.83 241.719 420.336 241.719 420.589 241.719ZM428.184 77.5102C427.931 77.5102 427.677 77.5102 427.424 77.5102C427.677 77.5102 427.931 77.5102 428.184 77.5102ZM438.816 205.482C438.563 205.482 438.563 205.482 438.31 205.482C438.31 205.482 438.563 205.482 438.816 205.482C438.816 205.482 438.563 205.482 438.816 205.482ZM453.752 228.035L447.423 209.536C446.157 205.735 442.613 203.201 438.563 203.201C437.55 203.201 436.538 203.455 435.525 203.708C430.715 205.228 425.652 205.989 420.589 205.989C407.679 205.989 395.274 201.174 386.161 192.305C377.048 183.435 371.985 171.778 371.985 159.361C371.985 133.514 393.756 112.481 420.589 112.481C425.652 112.481 430.715 113.241 435.525 114.761C436.538 115.015 437.55 115.268 438.31 115.268C442.36 115.268 445.904 112.734 447.17 108.933L453.499 90.4341C454.258 88.1534 454.005 85.6194 452.992 83.5921C451.98 81.3114 449.955 79.7909 447.423 79.0307C438.816 76.2432 429.703 74.9761 420.336 74.9761C372.238 74.9761 333 112.734 333 159.361C333 205.735 372.238 243.747 420.336 243.747C429.45 243.747 438.563 242.226 447.423 239.692C449.701 238.932 451.727 237.411 452.739 235.131C454.258 232.85 454.511 230.316 453.752 228.035Z" fill="#686968"/>
</svg>
