<svg enable-background="new 0 0 14 14" viewBox="0 0 14 14" xmlns="http://www.w3.org/2000/svg"><circle cx="7" cy="7" fill="#efefef" r="7"/><path d="m3.1 6.2c0 .6.2 1.1.4 1.6.4.7.8 1.2 1.3 1.6.6.5 1.2 1 1.9 1.5.1 0 .1.1.2.1h.2.2c.1 0 .1-.1.2-.1.5-.4 1.1-.9 1.7-1.5.5-.5.9-1 1.2-1.6.3-.5.4-1.1.4-1.6 0-.3-.1-.7-.2-1s-.3-.5-.5-.8c-.1-.1-.3-.2-.6-.4-.2-.1-.5-.1-.9-.1-.3 0-.7.1-1 .2-.2.1-.4.4-.6.6-.2-.2-.4-.5-.7-.6-.3-.2-.6-.2-1-.2-.3 0-.6 0-.8.1-.3.1-.5.3-.7.5s-.4.5-.5.8-.2.6-.2.9zm.7 0c0-.3.1-.6.2-.9.1-.2.3-.4.5-.6.2-.1.5-.2.8-.2.2 0 .4 0 .6.1.2.2.4.3.5.4s.2.2.3.4c0 .1.1.1.1.2h.1.1c.1 0 .1-.1.1-.2.3-.2.4-.3.5-.4s.3-.2.4-.3c.2-.1.4-.1.6-.1.3 0 .5.1.8.2.2.1.4.3.6.6.1.3.2.6.2.9 0 .4-.1.7-.3 1.1-.2.3-.4.6-.7 1s-.6.7-1 1c-.3.3-.7.6-1.1.8 0 0 0 0-.1 0h-.1c-.4-.2-.8-.5-1.1-.8-.4-.3-.7-.6-1-1s-.5-.7-.7-1.1c-.2-.3-.3-.7-.3-1.1z" fill="#343333"/></svg>