<svg width="92" height="26" viewBox="0 0 92 26" fill="none" xmlns="http://www.w3.org/2000/svg">
<path fill-rule="evenodd" clip-rule="evenodd" d="M33.49 11.86C33.49 14.03 31.68 14.72 30.16 14.72C29.74 14.72 29.43 14.72 29.2 14.71V18.19C29.22 18.29 29.16 18.37 29.07 18.39C29.04 18.4 29.02 18.4 29 18.39H27.88C27.78 18.41 27.69 18.35 27.68 18.26C27.67 18.24 27.67 18.22 27.68 18.19V9.38999C27.68 9.26999 27.74 9.21998 27.88 9.18998C28.68 9.11998 29.66 9.06998 30.29 9.06998C32.53 9.05998 33.49 10.21 33.49 11.86ZM31.92 11.86C31.92 10.84 31.33 10.38 30.32 10.38C29.99 10.38 29.61 10.39 29.21 10.41V13.39C29.43 13.41 29.75 13.41 30.18 13.41C31.33 13.41 31.92 12.81 31.92 11.86Z" fill="#00004D"/>
<path d="M37.99 12.05L37.98 13.28C37.98 13.41 37.92 13.46 37.78 13.48C36.66 13.62 35.94 13.77 35.94 14.41V18.21C35.96 18.3 35.9 18.39 35.81 18.41C35.79 18.41 35.77 18.41 35.74 18.41H34.68C34.59 18.43 34.5 18.37 34.48 18.28C34.48 18.25 34.48 18.23 34.48 18.21V12.21C34.47 12.12 34.53 12.03 34.62 12.01C34.64 12 34.66 12 34.68 12.01H35.11C35.53 11.98 35.9 12.29 35.94 12.72C35.94 12.76 35.94 12.8 35.94 12.84V12.88C36.45 12.43 37.06 12.09 37.72 11.91C37.89 11.85 37.99 11.91 37.99 12.05Z" fill="#00004D"/>
<path fill-rule="evenodd" clip-rule="evenodd" d="M38.83 10.33C38.89 10.76 39.29 11.07 39.73 11.01C40.24 11.01 40.64 10.78 40.64 10.17C40.61 9.72 40.25 9.34999 39.79 9.31999C39.29 9.28999 38.86 9.67 38.83 10.17C38.82 10.22 38.82 10.27 38.83 10.33ZM39.03 12.2V18.2C39.01 18.29 39.07 18.38 39.16 18.4C39.18 18.4 39.2 18.4 39.23 18.4H40.29C40.38 18.42 40.47 18.36 40.49 18.27C40.49 18.24 40.49 18.22 40.49 18.2V12.2C40.5 12.11 40.44 12.02 40.35 12C40.33 11.99 40.31 11.99 40.29 12H39.23C39.13 11.98 39.04 12.03 39.02 12.12C39.02 12.15 39.01 12.17 39.02 12.19L39.03 12.2Z" fill="#00004D"/>
<path d="M46.88 17.68C46.23 18.23 45.4 18.52 44.54 18.51C43.24 18.5 41.79 17.76 41.79 15.18C41.79 12.6 43.27 11.87 44.54 11.87C45.33 11.86 46.1 12.07 46.77 12.49C46.87 12.55 46.87 12.64 46.8 12.75L46.47 13.42C46.41 13.55 46.25 13.6 46.12 13.54C46.11 13.53 46.1 13.53 46.09 13.52C45.65 13.29 45.17 13.16 44.67 13.14C43.74 13.14 43.26 13.81 43.26 15.18C43.26 16.55 43.74 17.25 44.67 17.25C45.23 17.22 45.77 17.03 46.23 16.72C46.37 16.62 46.49 16.63 46.56 16.75L46.96 17.43C47.02 17.52 46.96 17.62 46.88 17.68Z" fill="#00004D"/>
<path fill-rule="evenodd" clip-rule="evenodd" d="M53.66 14.62V14.63C53.66 15.32 53.42 15.73 52.62 15.73L49.1 15.75C49.24 16.94 49.97 17.29 51.05 17.25C51.72 17.21 52.35 16.97 52.88 16.57C52.98 16.5 53.08 16.56 53.16 16.69L53.54 17.36C53.59 17.46 53.5 17.56 53.43 17.6C52.69 18.2 51.76 18.52 50.81 18.51C49.15 18.62 47.72 17.37 47.6 15.71C47.59 15.54 47.59 15.36 47.61 15.19C47.38 13.6 48.49 12.12 50.08 11.89C50.28 11.86 50.49 11.86 50.69 11.87C52.21 11.75 53.53 12.89 53.65 14.41C53.66 14.48 53.66 14.55 53.66 14.62ZM52.2 14.62C52.11 13.53 51.7 13.14 50.63 13.14C49.73 13.14 49.23 13.56 49.1 14.62H52.2Z" fill="#00004D"/>
<path d="M62.01 18.38H61.52C61.15 18.4 60.81 18.14 60.75 17.77C60.12 18.21 59.38 18.47 58.61 18.51C56.05 18.51 54.61 16.98 54.61 13.79C54.61 10.6 56.17 9.05996 58.74 9.05996C59.65 9.02996 60.55 9.24996 61.34 9.68996C61.41 9.73996 61.43 9.83997 61.39 9.91997L60.91 10.8C60.84 10.93 60.71 10.93 60.57 10.85C60.01 10.53 59.37 10.37 58.72 10.38C57.28 10.38 56.17 11.44 56.17 13.78C56.17 16.12 57.15 17.18 58.6 17.18C59.31 17.12 59.99 16.85 60.56 16.41V14.5H58.76C58.67 14.52 58.58 14.46 58.56 14.37C58.56 14.34 58.56 14.32 58.56 14.3V13.33C58.54 13.24 58.6 13.15 58.7 13.13C58.72 13.12 58.74 13.12 58.76 13.13H61.88C61.97 13.11 62.06 13.17 62.08 13.26C62.08 13.28 62.08 13.31 62.08 13.33V16.79C62.07 17.25 62.11 17.71 62.2 18.17C62.22 18.32 62.13 18.38 62.01 18.38Z" fill="#00004D"/>
<path fill-rule="evenodd" clip-rule="evenodd" d="M63.54 10.33C63.6 10.76 64.01 11.07 64.44 11.01C64.95 11.01 65.35 10.78 65.35 10.17C65.32 9.72 64.96 9.34999 64.5 9.31999C64 9.28999 63.57 9.67 63.54 10.17C63.53 10.22 63.54 10.27 63.54 10.33ZM63.74 12.2V18.2C63.72 18.29 63.78 18.38 63.87 18.4C63.89 18.4 63.92 18.4 63.94 18.4H65C65.09 18.42 65.18 18.36 65.2 18.27C65.2 18.24 65.2 18.22 65.2 18.2V12.2C65.22 12.11 65.16 12.02 65.06 12C65.04 11.99 65.02 11.99 65 12H63.94C63.85 11.98 63.75 12.03 63.73 12.12C63.73 12.15 63.73 12.17 63.73 12.19L63.74 12.2Z" fill="#00004D"/>
<path d="M70.3 12.05L70.29 13.28C70.29 13.41 70.23 13.46 70.09 13.48C68.97 13.62 68.25 13.77 68.25 14.41V18.21C68.27 18.3 68.21 18.39 68.12 18.41C68.1 18.41 68.08 18.41 68.05 18.41H66.99C66.9 18.43 66.81 18.37 66.79 18.28C66.79 18.25 66.79 18.23 66.79 18.21V12.21C66.78 12.12 66.84 12.03 66.93 12.01C66.95 12 66.97 12 66.99 12.01H67.42C67.84 11.97 68.21 12.29 68.25 12.71C68.25 12.76 68.25 12.8 68.25 12.84V12.88C68.76 12.43 69.37 12.09 70.03 11.91C70.2 11.85 70.3 11.91 70.3 12.05Z" fill="#00004D"/>
<path fill-rule="evenodd" clip-rule="evenodd" d="M76.32 18.38H75.89C75.38 18.38 75.15 18.06 75.06 17.55L75.05 17.5C74.52 18.08 73.79 18.44 73.01 18.5C71.99 18.65 71.04 17.94 70.89 16.92C70.87 16.78 70.87 16.63 70.88 16.48C70.87 15.19 71.78 14.42 73.74 14.42C74.08 14.42 74.5 14.43 74.94 14.44V14.06C74.94 13.41 74.36 13.13 73.6 13.13C73.08 13.12 72.56 13.23 72.09 13.46C71.99 13.52 71.85 13.49 71.78 13.39C71.78 13.38 71.78 13.37 71.77 13.37L71.43 12.68C71.37 12.59 71.39 12.46 71.49 12.4C71.5 12.4 71.51 12.39 71.52 12.39C72.19 12.02 72.95 11.84 73.72 11.86C75.22 11.86 76.39 12.41 76.39 13.86V16.81C76.38 17.27 76.42 17.73 76.51 18.19C76.53 18.32 76.45 18.38 76.32 18.38ZM73.25 17.25C73.9 17.17 74.5 16.86 74.94 16.38V15.6C74.48 15.59 74.04 15.58 73.74 15.58C72.6 15.58 72.34 16.04 72.34 16.5C72.35 16.92 72.59 17.25 73.25 17.25Z" fill="#00004D"/>
<path d="M85.67 9.26999L85.55 9.97998C85.52 10.12 85.47 10.23 85.35 10.18C85.07 10.1 84.79 10.05 84.5 10.04C83.94 10.04 83.58 10.32 83.58 11.06V12H85.01C85.11 11.98 85.2 12.04 85.21 12.13C85.22 12.15 85.22 12.17 85.21 12.2V13.01C85.23 13.1 85.17 13.19 85.08 13.21C85.06 13.22 85.04 13.22 85.01 13.21H83.58V18.21C83.6 18.3 83.54 18.39 83.45 18.41C83.43 18.42 83.41 18.42 83.38 18.41H82.32C82.23 18.43 82.14 18.37 82.12 18.28C82.12 18.26 82.12 18.23 82.12 18.21V13.21H79.57V18.21C79.59 18.3 79.53 18.39 79.44 18.41C79.41 18.42 79.39 18.42 79.37 18.41H78.31C78.22 18.43 78.13 18.37 78.11 18.28C78.11 18.26 78.11 18.23 78.11 18.21V13.21H77.56C77.47 13.23 77.38 13.17 77.36 13.08C77.36 13.06 77.36 13.03 77.36 13.01V12.37L78.1 12.08V10.87C78.01 9.81996 78.78 8.90997 79.83 8.80997C79.92 8.80997 80.01 8.80997 80.1 8.80997C80.56 8.81997 81.01 8.90999 81.44 9.07999C81.53 9.11999 81.64 9.16997 81.62 9.27997L81.49 9.98996C81.46 10.13 81.41 10.23 81.29 10.19C81.02 10.11 80.73 10.06 80.45 10.05C79.89 10.05 79.53 10.33 79.53 11.07V12H82.08V10.87C81.99 9.82996 82.76 8.90998 83.81 8.81998C83.9 8.80998 83.99 8.80997 84.08 8.80997C84.54 8.81997 84.99 8.90999 85.42 9.07999C85.58 9.11999 85.69 9.16999 85.67 9.26999Z" fill="#00004D"/>
<path fill-rule="evenodd" clip-rule="evenodd" d="M91.78 14.62V14.63C91.78 15.32 91.53 15.73 90.74 15.73L87.22 15.75C87.36 16.94 88.09 17.29 89.17 17.25C89.83 17.21 90.47 16.97 91 16.57C91.1 16.5 91.2 16.56 91.28 16.69L91.66 17.36C91.71 17.46 91.62 17.56 91.55 17.6C90.81 18.2 89.88 18.52 88.93 18.51C87.27 18.62 85.84 17.37 85.72 15.71C85.71 15.54 85.71 15.36 85.73 15.19C85.5 13.6 86.61 12.12 88.2 11.89C88.4 11.86 88.61 11.86 88.81 11.87C90.33 11.75 91.65 12.89 91.77 14.41C91.77 14.48 91.78 14.55 91.78 14.62ZM90.32 14.62C90.23 13.53 89.82 13.14 88.75 13.14C87.84 13.14 87.35 13.56 87.22 14.62H90.32Z" fill="#00004D"/>
<path d="M22.66 6.22997C22.68 7.50997 22.12 8.72997 21.15 9.56997C20.36 10.27 19.3 10.57 18.25 10.42C18.14 10.41 18.04 10.4 17.93 10.38C17.41 10.29 16.89 10.17 16.38 10.02C14.35 9.15998 12.97 7.21998 12.83 5.01998C12.91 4.99998 12.99 4.97997 13.06 4.94997C13.18 4.91997 13.3 4.87998 13.41 4.82998C14.3 4.42998 14.78 3.44997 14.52 2.50997C13.9 0.909972 14.46 0.149982 15.49 0.019982C16.51 -0.110018 17.81 0.349964 17.05 2.71996C16.38 4.38996 16.33 6.24995 16.91 7.95995C18.01 5.89995 20.37 4.85997 22.63 5.40997C22.65 5.64997 22.66 5.91997 22.66 6.22997Z" fill="url(#paint0_linear_53:3)"/>
<path opacity="0.549" d="M18.31 10.42C18.25 10.52 18.33 10.39 18.31 10.42C16.5 12.44 14.36 14.14 11.99 15.45L11.84 15.34C14.17 14.06 16.25 12.38 17.99 10.38L18.01 10.35C13.46 8.96998 13.14 5.71997 13.13 4.93997C13.27 4.88997 13.41 4.82999 13.55 4.76999C13.55 7.55999 15.56 9.93998 18.31 10.42Z" fill="#C1723D"/>
<path d="M1.05 5.41999C3.31 4.85999 5.67 5.90997 6.77 7.96997C7.35 6.25997 7.30002 4.39997 6.63002 2.71997C5.88002 0.359973 7.17002 -0.10003 8.20002 0.0299704C9.22002 0.14997 9.78002 0.909981 9.16002 2.50998C8.87002 3.57998 9.50002 4.67997 10.57 4.96997C10.66 4.98997 10.75 5.00999 10.85 5.01999C10.71 7.22999 9.34 9.16999 7.3 10.02C5.75 10.75 3.92001 10.58 2.53001 9.57999C1.56001 8.73999 1.01 7.50998 1.02 6.22998C1.02 5.91998 1.03 5.64999 1.05 5.41999Z" fill="url(#paint1_linear_53:3)"/>
<path opacity="0.549" d="M10.66 4.97998C10.74 4.97998 10.79 5.03998 10.86 5.03998C10.4 7.84998 8.20999 10.06 5.39999 10.54L5.32999 10.44C8.07999 9.93997 10.22 7.74998 10.66 4.97998Z" fill="#C1723D"/>
<path d="M5.47 10.42C8.24 9.95998 10.41 7.78999 10.85 5.01999C11.68 5.10999 12.52 5.04996 13.33 4.86996C13.12 7.50996 14.75 9.34997 18.22 10.41C16.41 12.47 14.25 14.21 11.84 15.53L5.47 10.42Z" fill="url(#paint2_linear_53:3)"/>
<path d="M9.60001 24.71C13.12 22.11 13.88 17.15 11.29 13.63C9.92002 11.76 7.79001 10.58 5.47001 10.42C4.93001 10.32 3.75 12.29 4.71 13.82C6.08 15.53 7.16 17.45 7.93 19.5C8.22 20.88 7.59001 22.86 9.60001 24.71Z" fill="url(#paint3_linear_53:3)"/>
<path d="M9.59 24.7C11.29 26.19 12.79 26.19 14.09 24.7C13.11 23.02 12.46 21.84 12.13 21.16L9.59 24.7Z" fill="url(#paint4_linear_53:3)"/>
<path d="M14.09 24.7C10.56 22.1 9.8 17.14 12.39 13.61C13.77 11.74 15.9 10.56 18.22 10.4C18.77 10.3 19.94 12.28 18.98 13.8C17.61 15.51 16.52 17.43 15.76 19.49C15.47 20.88 16.09 22.87 14.09 24.7Z" fill="url(#paint5_linear_53:3)"/>
<defs>
<linearGradient id="paint0_linear_53:3" x1="2.65097" y1="-16.394" x2="-2.85003" y2="-10.732" gradientUnits="userSpaceOnUse">
<stop stop-color="#F67399"/>
<stop offset="0.219" stop-color="#F97E92"/>
<stop offset="0.637" stop-color="#FF9C84"/>
<stop offset="1" stop-color="#FFB878"/>
</linearGradient>
<linearGradient id="paint1_linear_53:3" x1="-14.883" y1="19.982" x2="-8.66702" y2="26.733" gradientUnits="userSpaceOnUse">
<stop stop-color="#F67399"/>
<stop offset="0.219" stop-color="#F97E92"/>
<stop offset="0.637" stop-color="#FF9C84"/>
<stop offset="1" stop-color="#FFB878"/>
</linearGradient>
<linearGradient id="paint2_linear_53:3" x1="43.089" y1="17.135" x2="44.275" y2="6.56497" gradientUnits="userSpaceOnUse">
<stop stop-color="#F67399"/>
<stop offset="0.219" stop-color="#F97E92"/>
<stop offset="0.637" stop-color="#FF9C84"/>
<stop offset="1" stop-color="#FFB878"/>
</linearGradient>
<linearGradient id="paint3_linear_53:3" x1="21.498" y1="44.1229" x2="27.509" y2="28.6759" gradientUnits="userSpaceOnUse">
<stop stop-color="#F67399"/>
<stop offset="0.219" stop-color="#F97E92"/>
<stop offset="0.637" stop-color="#FF9C84"/>
<stop offset="1" stop-color="#FFB878"/>
</linearGradient>
<linearGradient id="paint4_linear_53:3" x1="0.576997" y1="20.683" x2="0.634997" y2="27.395" gradientUnits="userSpaceOnUse">
<stop stop-color="#F67399"/>
<stop offset="0.219" stop-color="#F97E92"/>
<stop offset="0.637" stop-color="#FF9C84"/>
<stop offset="1" stop-color="#FFB878"/>
</linearGradient>
<linearGradient id="paint5_linear_53:3" x1="31.506" y1="-4.37905" x2="24.878" y2="-16.1951" gradientUnits="userSpaceOnUse">
<stop stop-color="#F67399"/>
<stop offset="0.219" stop-color="#F97E92"/>
<stop offset="0.637" stop-color="#FF9C84"/>
<stop offset="1" stop-color="#FFB878"/>
</linearGradient>
</defs>
</svg>
