<svg width="1985" height="1284" viewBox="0 0 1985 1284" fill="none" xmlns="http://www.w3.org/2000/svg">
<path fill-rule="evenodd" clip-rule="evenodd" d="M180.055 1077.87C180.055 1145.03 124.035 1166.39 76.9901 1166.39C63.9908 1166.39 54.3964 1166.39 47.2778 1166.08V1273.79C47.8968 1276.88 46.0396 1279.36 43.254 1279.98C42.3255 1280.29 41.7063 1280.29 41.0872 1279.98H6.42264C3.32757 1280.6 0.541637 1278.74 0.23213 1275.95C-0.0773767 1275.33 -0.0773767 1274.72 0.23213 1273.79V1001.42C0.23213 997.707 2.08955 996.159 6.42264 995.231C31.1832 993.064 61.5149 991.517 81.0139 991.517C150.343 991.207 180.055 1026.8 180.055 1077.87ZM131.464 1077.87C131.464 1046.3 113.203 1032.06 81.9424 1032.06C71.7286 1032.06 59.9669 1032.37 47.5866 1032.99V1125.22C54.3958 1125.84 64.3 1125.84 77.6088 1125.84C113.202 1125.84 131.464 1107.27 131.464 1077.87Z" fill="white"/>
<path d="M319.333 1083.75L319.025 1121.82C319.025 1125.84 317.167 1127.39 312.834 1128.01C278.169 1132.34 255.885 1136.98 255.885 1156.79V1274.4C256.504 1277.19 254.647 1279.98 251.861 1280.6C251.242 1280.6 250.623 1280.6 249.694 1280.6H216.887C214.101 1281.21 211.316 1279.36 210.697 1276.57C210.697 1275.64 210.697 1275.02 210.697 1274.4V1088.7C210.388 1085.92 212.244 1083.13 215.03 1082.51C215.649 1082.2 216.268 1082.2 216.887 1082.51H230.195C243.195 1081.58 254.647 1091.18 255.885 1104.49C255.885 1105.72 255.885 1106.96 255.885 1108.2V1109.44C271.67 1095.51 290.55 1084.99 310.977 1079.42C316.239 1077.56 319.333 1079.42 319.333 1083.75Z" fill="white"/>
<path fill-rule="evenodd" clip-rule="evenodd" d="M345.332 1030.52C347.189 1043.82 359.57 1053.42 373.188 1051.56C388.973 1051.56 401.354 1044.44 401.354 1025.56C400.425 1011.63 389.283 1000.18 375.045 999.255C359.57 998.326 346.261 1010.09 345.332 1025.56C345.022 1027.11 345.022 1028.66 345.332 1030.52ZM351.522 1088.39V1274.1C350.903 1276.88 352.761 1279.67 355.546 1280.29C356.165 1280.29 356.784 1280.29 357.713 1280.29H390.521C393.306 1280.91 396.091 1279.05 396.71 1276.26C396.71 1275.33 396.71 1274.72 396.71 1274.1V1088.39C397.02 1085.61 395.163 1082.82 392.378 1082.2C391.759 1081.89 391.14 1081.89 390.521 1082.2H357.713C354.618 1081.58 351.832 1083.13 351.213 1085.92C351.213 1086.84 350.903 1087.46 351.213 1088.08L351.522 1088.39Z" fill="white"/>
<path d="M594.486 1258C574.368 1275.02 548.679 1284 522.061 1283.69C481.825 1283.38 436.947 1260.48 436.947 1180.62C436.947 1100.77 482.754 1078.18 522.061 1078.18C546.512 1077.87 570.344 1084.37 591.081 1097.37C594.176 1099.22 594.176 1102.01 592.009 1105.41L581.796 1126.15C579.939 1130.18 574.986 1131.72 570.963 1129.87C570.653 1129.56 570.344 1129.56 570.034 1129.25C556.416 1122.13 541.56 1118.11 526.085 1117.49C497.301 1117.49 482.444 1138.22 482.444 1180.62C482.444 1223.03 497.301 1244.69 526.085 1244.69C543.417 1243.76 560.131 1237.88 574.368 1228.29C578.701 1225.19 582.415 1225.5 584.581 1229.22L596.961 1250.26C598.818 1253.05 596.962 1256.14 594.486 1258Z" fill="white"/>
<path fill-rule="evenodd" clip-rule="evenodd" d="M804.331 1163.29V1163.6C804.331 1184.96 796.902 1197.65 772.142 1197.65L663.196 1198.27C667.529 1235.1 690.122 1245.93 723.549 1244.69C744.286 1243.45 763.785 1236.03 780.189 1223.65C783.284 1221.48 786.379 1223.34 788.855 1227.36L800.617 1248.1C802.164 1251.19 799.378 1254.29 797.212 1255.53C774.308 1274.1 745.524 1284 716.121 1283.69C664.743 1287.09 620.484 1248.41 616.77 1197.03C616.46 1191.77 616.46 1186.2 617.079 1180.93C609.96 1131.72 644.315 1085.92 693.527 1078.8C699.717 1077.87 706.217 1077.87 712.407 1078.18C759.452 1074.46 800.307 1109.75 804.021 1156.79C804.331 1158.96 804.331 1161.13 804.331 1163.29ZM759.143 1163.29C756.358 1129.56 743.668 1117.49 710.55 1117.49C682.695 1117.49 667.219 1130.48 663.196 1163.29H759.143Z" fill="white"/>
<path d="M1062.77 1279.67H1047.6C1036.15 1280.29 1025.63 1272.24 1023.77 1260.79C1004.27 1274.41 981.368 1282.45 957.536 1283.69C878.302 1283.69 833.733 1236.34 833.733 1137.6C833.733 1038.87 882.017 991.206 961.56 991.206C989.725 990.278 1017.58 997.087 1042.03 1010.71C1044.2 1012.25 1044.82 1015.35 1043.58 1017.82L1028.72 1045.06C1026.56 1049.08 1022.53 1049.08 1018.2 1046.61C1000.87 1036.7 981.059 1031.75 960.941 1032.06C916.372 1032.06 882.017 1064.87 882.017 1137.29C882.017 1209.72 912.349 1242.53 957.227 1242.53C979.202 1240.67 1000.25 1232.31 1017.89 1218.69V1159.58H962.179C959.394 1160.2 956.608 1158.34 955.989 1155.55C955.989 1154.63 955.989 1154.01 955.989 1153.39V1123.37C955.37 1120.58 957.227 1117.79 960.322 1117.18C960.941 1116.87 961.56 1116.87 962.179 1117.18H1058.75C1061.53 1116.56 1064.32 1118.41 1064.93 1121.2C1064.93 1121.82 1064.93 1122.75 1064.93 1123.37V1230.46C1064.63 1244.69 1065.86 1258.93 1068.65 1273.17C1069.27 1277.81 1066.48 1279.67 1062.77 1279.67Z" fill="white"/>
<path fill-rule="evenodd" clip-rule="evenodd" d="M1110.12 1030.52C1111.98 1043.82 1124.67 1053.42 1137.98 1051.56C1153.76 1051.56 1166.14 1044.44 1166.14 1025.56C1165.22 1011.63 1154.07 1000.18 1139.84 999.255C1124.36 998.326 1111.05 1010.09 1110.12 1025.56C1109.81 1027.11 1110.12 1028.66 1110.12 1030.52ZM1116.31 1088.39V1274.1C1115.69 1276.88 1117.55 1279.67 1120.34 1280.29C1120.96 1280.29 1121.88 1280.29 1122.5 1280.29H1155.31C1158.1 1280.91 1160.88 1279.05 1161.5 1276.26C1161.5 1275.33 1161.5 1274.72 1161.5 1274.1V1088.39C1162.12 1085.61 1160.26 1082.82 1157.17 1082.2C1156.55 1081.89 1155.93 1081.89 1155.31 1082.2H1122.5C1119.72 1081.58 1116.62 1083.13 1116 1085.92C1116 1086.84 1116 1087.46 1116 1088.08L1116.31 1088.39Z" fill="white"/>
<path d="M1319.35 1083.75L1319.04 1121.82C1319.04 1125.84 1317.18 1127.39 1312.85 1128.01C1278.19 1132.34 1255.9 1136.98 1255.9 1156.79V1274.4C1256.52 1277.19 1254.66 1279.98 1251.88 1280.6C1251.26 1280.6 1250.64 1280.6 1249.71 1280.6H1216.9C1214.12 1281.21 1211.33 1279.36 1210.71 1276.57C1210.71 1275.64 1210.71 1275.02 1210.71 1274.4V1088.7C1210.4 1085.92 1212.26 1083.13 1215.05 1082.51C1215.66 1082.2 1216.28 1082.2 1216.9 1082.51H1230.21C1243.21 1081.27 1254.66 1091.18 1255.9 1104.18C1255.9 1105.72 1255.9 1106.96 1255.9 1108.2V1109.44C1271.69 1095.51 1290.57 1084.99 1310.99 1079.42C1316.25 1077.56 1319.35 1079.42 1319.35 1083.75Z" fill="white"/>
<path fill-rule="evenodd" clip-rule="evenodd" d="M1505.67 1279.67H1492.36C1476.58 1279.67 1469.46 1269.76 1466.68 1253.98L1466.37 1252.43C1449.96 1270.38 1427.37 1281.52 1403.23 1283.38C1371.66 1288.02 1342.25 1266.05 1337.61 1234.48C1336.99 1230.15 1336.99 1225.5 1337.3 1220.86C1336.99 1180.93 1365.16 1157.1 1425.82 1157.1C1436.34 1157.1 1449.34 1157.41 1462.96 1157.72V1145.96C1462.96 1125.84 1445.01 1117.18 1421.49 1117.18C1405.39 1116.87 1389.3 1120.27 1374.75 1127.39C1371.66 1129.25 1367.32 1128.32 1365.16 1125.22C1365.16 1124.91 1365.16 1124.6 1364.85 1124.6L1354.32 1103.25C1352.47 1100.46 1353.09 1096.44 1356.18 1094.58C1356.49 1094.58 1356.8 1094.27 1357.11 1094.27C1377.85 1082.82 1401.37 1077.25 1425.2 1077.87C1471.63 1077.87 1507.84 1094.89 1507.84 1139.77V1231.07C1507.53 1245.31 1508.77 1259.55 1511.55 1273.79C1512.17 1277.81 1509.7 1279.67 1505.67 1279.67ZM1410.65 1244.69C1430.77 1242.22 1449.34 1232.62 1462.96 1217.77V1193.62C1448.72 1193.31 1435.11 1193.01 1425.82 1193.01C1390.54 1193.01 1382.49 1207.24 1382.49 1221.48C1382.8 1234.48 1390.23 1244.69 1410.65 1244.69Z" fill="white"/>
<path d="M1795.06 997.707L1791.35 1019.68C1790.42 1024.01 1788.87 1027.42 1785.16 1025.87C1776.49 1023.39 1767.83 1021.85 1758.85 1021.54C1741.52 1021.54 1730.37 1030.2 1730.37 1053.11V1082.2H1774.63C1777.73 1081.58 1780.52 1083.44 1780.82 1086.23C1781.13 1086.84 1781.13 1087.46 1780.82 1088.39V1113.46C1781.44 1116.25 1779.59 1119.03 1776.8 1119.65C1776.18 1119.96 1775.56 1119.96 1774.63 1119.65H1730.37V1274.4C1730.99 1277.19 1729.14 1279.98 1726.35 1280.6C1725.73 1280.9 1725.11 1280.9 1724.19 1280.6H1691.38C1688.59 1281.21 1685.81 1279.36 1685.19 1276.57C1685.19 1275.95 1685.19 1275.02 1685.19 1274.4V1119.65H1606.26V1274.4C1606.88 1277.19 1605.03 1279.98 1602.24 1280.6C1601.31 1280.9 1600.69 1280.9 1600.07 1280.6H1567.27C1564.48 1281.21 1561.69 1279.36 1561.07 1276.57C1561.07 1275.95 1561.07 1275.02 1561.07 1274.4V1119.65H1544.05C1541.27 1120.27 1538.48 1118.41 1537.86 1115.63C1537.86 1115.01 1537.86 1114.08 1537.86 1113.46V1093.65L1560.77 1084.68V1047.23C1557.98 1014.73 1581.81 986.564 1614.31 983.469C1617.1 983.469 1619.88 983.469 1622.67 983.469C1636.9 983.778 1650.83 986.564 1664.14 991.826C1666.93 993.064 1670.33 994.611 1669.71 998.016L1665.69 1019.99C1664.76 1024.32 1663.21 1027.42 1659.5 1026.18C1651.14 1023.7 1642.17 1022.16 1633.5 1021.85C1616.17 1021.85 1605.02 1030.51 1605.02 1053.42V1082.2H1683.95V1047.23C1681.16 1015.04 1705 986.564 1737.49 983.779C1740.28 983.469 1743.06 983.469 1745.85 983.469C1760.09 983.778 1774.02 986.564 1787.32 991.826C1792.28 993.064 1795.68 994.612 1795.06 997.707Z" fill="white"/>
<path fill-rule="evenodd" clip-rule="evenodd" d="M1984.17 1163.29V1163.6C1984.17 1184.96 1976.43 1197.65 1951.98 1197.65L1843.04 1198.27C1847.37 1235.1 1869.96 1245.93 1903.39 1244.69C1923.82 1243.45 1943.63 1236.03 1960.03 1223.65C1963.12 1221.48 1966.22 1223.34 1968.7 1227.36L1980.46 1248.1C1982 1251.19 1979.22 1254.29 1977.05 1255.53C1954.15 1274.1 1925.36 1284 1895.96 1283.69C1844.58 1287.09 1800.32 1248.41 1796.61 1197.03C1796.3 1191.77 1796.3 1186.2 1796.92 1180.93C1789.8 1131.72 1824.16 1085.92 1873.37 1078.8C1879.56 1077.87 1886.06 1077.87 1892.25 1078.18C1939.29 1074.46 1980.15 1109.75 1983.86 1156.79C1983.86 1158.96 1984.17 1161.13 1984.17 1163.29ZM1938.98 1163.29C1936.2 1129.56 1923.51 1117.49 1890.39 1117.49C1862.22 1117.49 1847.06 1130.48 1843.04 1163.29H1938.98Z" fill="white"/>
<path d="M1326.25 192.822C1326.87 232.439 1309.54 270.198 1279.52 296.197C1255.07 317.862 1222.26 327.148 1189.76 322.505C1186.36 322.196 1183.26 321.886 1179.86 321.267C1163.76 318.481 1147.67 314.768 1131.88 310.125C1069.05 283.508 1026.34 223.463 1022.01 155.372C1024.49 154.753 1026.96 154.134 1029.13 153.205C1032.84 152.277 1036.56 151.039 1039.96 149.491C1067.51 137.111 1082.36 106.779 1074.32 77.6853C1055.13 28.1643 1072.46 4.64204 1104.34 0.618456C1135.91 -3.40513 1176.14 10.8316 1152.62 84.1847C1131.88 135.872 1130.34 193.44 1148.29 246.366C1182.33 182.608 1255.38 150.419 1325.33 167.442C1325.95 174.87 1326.25 183.227 1326.25 192.822Z" fill="url(#paint0_linear_107:83)"/>
<path opacity="0.549" d="M1191.62 322.505C1189.76 325.6 1192.24 321.577 1191.62 322.505C1135.6 385.026 1069.36 437.642 996.011 478.187L991.368 474.782C1063.48 435.165 1127.86 383.168 1181.71 321.267L1182.33 320.339C1041.51 277.627 1031.6 177.037 1031.3 152.895C1035.63 151.348 1039.96 149.491 1044.29 147.634C1044.29 233.987 1106.5 307.649 1191.62 322.505Z" fill="#C1723D"/>
<path d="M657.411 167.752C727.359 150.42 800.403 182.918 834.449 246.676C852.4 193.751 850.853 136.182 830.116 84.1852C806.903 11.1416 846.83 -3.09576 878.709 0.927823C910.278 4.6419 927.61 28.1647 908.421 77.6858C899.445 110.803 918.944 144.849 952.062 153.824C954.847 154.443 957.633 155.063 960.728 155.372C956.395 223.773 913.992 283.818 850.852 310.126C802.879 332.72 746.239 327.458 703.218 296.507C673.196 270.509 656.173 232.439 656.482 192.822C656.482 183.228 656.792 174.871 657.411 167.752Z" fill="url(#paint1_linear_107:83)"/>
<path opacity="0.549" d="M954.847 154.133C957.323 154.133 958.87 155.99 961.037 155.99C946.799 242.962 879.018 311.363 792.046 326.219L789.879 323.124C874.994 307.648 941.229 239.867 954.847 154.133Z" fill="#C1723D"/>
<path d="M794.212 322.506C879.946 308.268 947.109 241.106 960.727 155.372C986.416 158.158 1012.41 156.3 1037.48 150.729C1030.98 232.439 1081.43 289.388 1188.83 322.196C1132.81 385.954 1065.96 439.808 991.368 480.663L794.212 322.506Z" fill="url(#paint2_linear_107:83)"/>
<path d="M922.039 764.789C1030.99 684.317 1054.51 530.803 974.346 421.856C931.943 363.978 866.018 327.457 794.213 322.505C777.499 319.41 740.977 380.382 770.69 427.737C813.092 480.663 846.519 540.088 870.351 603.537C879.327 646.248 859.828 707.53 922.039 764.789Z" fill="url(#paint3_linear_107:83)"/>
<path d="M921.729 764.481C974.345 810.598 1020.77 810.598 1061.01 764.481C1030.68 712.484 1010.56 675.962 1000.34 654.916L921.729 764.481Z" fill="url(#paint4_linear_107:83)"/>
<path d="M1061.01 764.481C951.751 684.01 928.229 530.494 1008.39 421.238C1051.1 363.361 1117.03 326.838 1188.83 321.886C1205.86 318.791 1242.07 380.074 1212.36 427.119C1169.95 480.045 1136.22 539.469 1112.7 603.228C1103.72 646.249 1122.91 707.842 1061.01 764.481Z" fill="url(#paint5_linear_107:83)"/>
<defs>
<linearGradient id="paint0_linear_107:83" x1="706.962" y1="-507.406" x2="536.702" y2="-332.163" gradientUnits="userSpaceOnUse">
<stop stop-color="#F67399"/>
<stop offset="0.219" stop-color="#F97E92"/>
<stop offset="0.637" stop-color="#FF9C84"/>
<stop offset="1" stop-color="#FFB878"/>
</linearGradient>
<linearGradient id="paint1_linear_107:83" x1="164.273" y1="618.457" x2="356.663" y2="827.405" gradientUnits="userSpaceOnUse">
<stop stop-color="#F67399"/>
<stop offset="0.219" stop-color="#F97E92"/>
<stop offset="0.637" stop-color="#FF9C84"/>
<stop offset="1" stop-color="#FFB878"/>
</linearGradient>
<linearGradient id="paint2_linear_107:83" x1="1958.55" y1="530.339" x2="1995.25" y2="203.19" gradientUnits="userSpaceOnUse">
<stop stop-color="#F67399"/>
<stop offset="0.219" stop-color="#F97E92"/>
<stop offset="0.637" stop-color="#FF9C84"/>
<stop offset="1" stop-color="#FFB878"/>
</linearGradient>
<linearGradient id="paint3_linear_107:83" x1="1290.29" y1="1365.63" x2="1476.33" y2="887.539" gradientUnits="userSpaceOnUse">
<stop stop-color="#F67399"/>
<stop offset="0.219" stop-color="#F97E92"/>
<stop offset="0.637" stop-color="#FF9C84"/>
<stop offset="1" stop-color="#FFB878"/>
</linearGradient>
<linearGradient id="paint4_linear_107:83" x1="642.771" y1="640.152" x2="644.566" y2="847.893" gradientUnits="userSpaceOnUse">
<stop stop-color="#F67399"/>
<stop offset="0.219" stop-color="#F97E92"/>
<stop offset="0.637" stop-color="#FF9C84"/>
<stop offset="1" stop-color="#FFB878"/>
</linearGradient>
<linearGradient id="paint5_linear_107:83" x1="1600.04" y1="-135.534" x2="1394.9" y2="-501.248" gradientUnits="userSpaceOnUse">
<stop stop-color="#F67399"/>
<stop offset="0.219" stop-color="#F97E92"/>
<stop offset="0.637" stop-color="#FF9C84"/>
<stop offset="1" stop-color="#FFB878"/>
</linearGradient>
</defs>
</svg>
