<svg width="1295" height="301" viewBox="0 0 1295 301" fill="none" xmlns="http://www.w3.org/2000/svg">
<g clip-path="url(#clip0_57:8)">
<path d="M323.154 224.263V24.9846H440.989V49.9687H347.554V111.239H431.467V136.224H347.554V198.684H447.536V223.668H323.154V224.263Z" fill="#A5B4FC"/>
<path d="M571.322 224.263L530.853 171.321L490.384 224.263H461.818L517.165 153.475L458.843 80.3068H490.979L530.853 135.034L571.322 80.3068H602.864L547.517 153.475L599.888 224.263H571.322Z" fill="#A5B4FC"/>
<path d="M639.167 202.848V301H614.767V154.07C614.767 116.593 643.333 76.7376 687.968 76.7376C733.198 76.7376 767.12 105.291 767.12 152.285C767.12 198.089 732.603 229.617 693.324 229.617C674.28 229.617 648.689 221.289 639.167 202.848V202.848ZM741.529 152.285C741.529 120.162 720.7 101.127 683.802 102.911C665.948 103.506 638.572 116.593 640.953 162.398C641.548 177.269 657.021 205.228 690.944 205.228C720.105 205.228 741.529 188.572 741.529 152.285V152.285Z" fill="#A5B4FC"/>
<path d="M787.949 224.263V80.3062H812.349V95.7725C824.252 82.0907 842.701 77.3318 862.34 77.3318V103.506C859.364 102.911 830.203 99.3417 812.349 137.413V224.857H787.949V224.263Z" fill="#A5B4FC"/>
<path d="M868.888 152.285C868.888 110.645 898.644 76.7376 939.708 76.7376C990.889 76.7376 1009.93 110.645 1009.93 154.07V165.967H895.668C897.454 193.331 921.854 207.607 944.469 207.012C961.133 206.417 972.44 201.659 984.343 189.761L1000.41 206.417C985.533 220.694 966.489 230.212 943.279 230.212C899.834 229.617 868.888 197.495 868.888 152.285V152.285ZM937.922 101.127C914.712 101.127 896.859 121.352 895.668 143.362H984.343C984.343 121.947 968.869 101.127 937.922 101.127V101.127Z" fill="#A5B4FC"/>
<path d="M1022.43 204.038L1040.28 187.977C1039.69 187.977 1049.21 197.495 1050.4 198.09C1054.57 201.659 1058.73 204.039 1064.09 205.228C1079.56 209.392 1107.53 208.203 1109.91 186.787C1111.1 174.89 1102.18 168.347 1092.06 164.183C1078.97 159.424 1064.68 157.639 1051.59 151.691C1036.71 145.147 1027.19 133.845 1027.19 117.189C1027.19 73.7638 1089.08 66.6254 1117.05 86.8507C1118.24 88.0404 1131.93 100.533 1131.34 100.533L1113.48 114.809C1104.56 104.102 1096.23 98.7479 1077.18 98.7479C1067.66 98.7479 1054.57 102.912 1052.19 113.025C1048.61 127.301 1064.68 132.655 1075.4 135.629C1089.68 139.199 1105.15 141.578 1117.65 149.311C1134.91 160.019 1139.07 183.218 1132.53 201.064C1125.39 220.695 1103.96 228.428 1084.92 229.023C1062.3 230.212 1042.66 223.074 1026.6 207.013C1025.4 207.013 1022.43 204.038 1022.43 204.038V204.038Z" fill="#A5B4FC"/>
<path d="M1148 204.038L1165.86 187.977C1165.26 187.977 1174.78 197.495 1175.97 198.09C1180.14 201.659 1184.31 204.039 1189.66 205.228C1205.13 209.392 1233.11 208.203 1235.49 186.787C1236.68 174.89 1227.75 168.347 1217.63 164.183C1204.54 159.424 1190.26 157.639 1177.16 151.691C1162.29 145.147 1152.76 133.845 1152.76 117.189C1152.76 73.7638 1214.66 66.6254 1242.63 86.8507C1243.82 88.0404 1257.51 100.533 1256.91 100.533L1239.06 114.809C1230.13 104.102 1221.8 98.7479 1202.75 98.7479C1193.23 98.7479 1180.14 102.912 1177.76 113.025C1174.19 127.301 1190.26 132.655 1200.97 135.629C1215.25 139.199 1230.73 141.578 1243.22 149.311C1260.48 160.019 1264.65 183.218 1258.1 201.064C1250.96 220.695 1229.54 228.428 1210.49 229.023C1187.88 230.212 1168.24 223.074 1152.17 207.013C1150.98 207.013 1148 204.038 1148 204.038V204.038Z" fill="#A5B4FC"/>
<path d="M1264.05 80.3073V64.8408H1258.7V61.8665H1272.98V64.8408H1267.62V80.3073H1264.05Z" fill="#A5B4FC"/>
<path d="M1290.83 80.3073V66.0305L1285.48 80.3073H1284.29L1278.93 66.0305V80.3073H1275.96V61.8665H1280.72L1285.48 74.3586L1290.24 61.8665H1295V80.3073H1290.83Z" fill="#A5B4FC"/>
<path d="M157.709 224.263L139.855 176.674H43.4444L25.5905 224.263H0L77.3667 24.9846H105.338L182.109 224.263H157.709ZM90.4595 53.5379L54.1567 152.285H129.738L90.4595 53.5379Z" fill="#A5B4FC"/>
<path d="M198.179 224.263V24.9846H223.174V224.263H198.179Z" fill="#A5B4FC"/>
<path d="M260.666 224.263V83.2806H285.662V224.263H260.666Z" fill="#A5B4FC"/>
<path d="M309.468 37.4762C309.468 36.8813 309.468 36.8814 309.468 36.2865C309.468 35.6916 309.468 35.6917 309.468 35.0968C290.424 34.5019 274.95 19.0356 274.355 0C273.76 0 273.165 0 272.57 0C271.975 0 271.38 0 270.784 0C270.189 19.0356 254.716 34.5019 235.672 35.0968C235.672 35.6917 235.672 35.6916 235.672 36.2865C235.672 36.8814 235.672 36.8813 235.672 37.4762C254.716 38.0711 270.189 53.5375 270.784 72.5731C271.38 72.5731 271.975 72.5731 272.57 72.5731C273.165 72.5731 273.76 72.5731 274.355 72.5731C274.95 53.5375 290.424 38.0711 309.468 37.4762Z" fill="#A5B4FC"/>
</g>
<defs>
<clipPath id="clip0_57:8">
<rect width="1295" height="301" fill="white"/>
</clipPath>
</defs>
</svg>
