<svg width="742" height="314" viewBox="0 0 742 314" fill="none" xmlns="http://www.w3.org/2000/svg">
<path d="M96.1297 68.6548C43.8292 68.6548 0.247314 92.0659 0.247314 162.696C0.247314 218.651 29.553 253.888 97.4801 253.888C177.434 253.888 182.559 198.318 182.559 198.318H143.818C143.818 198.318 135.511 228.24 95.1168 228.24C62.2167 228.24 38.5537 204.79 38.5537 171.922H186.61V151.297C186.61 118.78 167.046 68.6548 96.1297 68.6548V68.6548ZM94.7792 95.0149C126.097 95.0149 147.447 115.258 147.447 145.598H39.4105C39.4105 113.388 67.2781 95.0149 94.7792 95.0149V95.0149Z" fill="#A5B4FC"/>
<path d="M186.583 0.261169V218.417C186.583 230.801 185.745 248.188 185.745 248.188H222.696C222.696 248.188 224.022 235.7 224.022 224.288C224.022 224.288 242.279 254.422 291.918 254.422C344.191 254.422 379.698 216.131 379.698 161.271C379.698 110.236 347.084 69.1892 292.003 69.1892C240.423 69.1892 224.396 98.5771 224.396 98.5771V0.261169H186.583ZM282.465 96.1726C317.962 96.1726 340.535 123.969 340.535 161.271C340.535 201.271 314.464 227.439 282.718 227.439C244.832 227.439 224.396 196.227 224.396 161.627C224.396 129.387 242.734 96.1726 282.465 96.1726Z" fill="#A5B4FC"/>
<path d="M471.529 68.6548C392.847 68.6548 387.801 114.111 387.801 121.375H426.964C426.964 121.375 429.018 94.8368 468.828 94.8368C494.697 94.8368 514.743 107.33 514.743 131.349V139.898H468.828C407.872 139.898 375.646 158.713 375.646 196.893C375.646 234.468 405.422 254.912 445.659 254.912C500.497 254.912 518.162 222.941 518.162 222.941C518.162 235.657 519.091 248.188 519.091 248.188H553.907C553.907 248.188 552.556 232.656 552.556 222.719V136.826C552.556 80.5071 509.502 68.6548 471.529 68.6548V68.6548ZM514.743 165.546V176.945C514.743 191.812 506.048 228.774 454.859 228.774C426.828 228.774 414.81 214.014 414.81 196.893C414.81 165.746 455.283 165.546 514.743 165.546V165.546Z" fill="#A5B4FC"/>
<path d="M531.467 75.7864H575.526L638.756 209.444L701.842 75.7864H741.753L626.843 313.739H584.979L618.138 247.407L531.467 75.7864Z" fill="#A5B4FC"/>
</svg>
