<svg width="1141" height="299" viewBox="0 0 1141 299" fill="none" xmlns="http://www.w3.org/2000/svg">
<path d="M466.325 41.8229H492.17V166.188H536.722V190.736H466.433L466.325 41.8229Z" fill="#A5B4FC"/>
<path d="M596.577 79.1324C610.27 78.961 623.25 85.2028 631.67 96.0025V81.3493H655.782V190.952H631.67V176.299C623.25 187.099 610.27 193.341 596.577 193.169C566.515 193.169 543.698 167.485 543.698 136.124C543.698 104.762 566.515 79.1324 596.577 79.1324V79.1324ZM600.959 101.085C581.439 101.085 568.514 116.442 568.514 136.124C568.514 155.806 581.653 171.216 600.959 171.216C620.261 171.216 633.4 155.86 633.4 136.124C633.4 116.388 620.475 101.085 600.959 101.085" fill="#A5B4FC"/>
<path d="M674.546 171.919L732.022 103.248H675.409V81.3493H763.164V100.653L705.906 169.053H764.462V190.952H674.546V171.919" fill="#A5B4FC"/>
<path d="M825.778 79.1324C839.467 78.961 852.451 85.2028 860.867 96.0025V81.3493H884.983V190.952H860.867V176.299C852.451 187.099 839.467 193.341 825.778 193.169C795.716 193.169 772.95 167.485 772.95 136.124C772.95 104.762 795.716 79.1324 825.778 79.1324V79.1324ZM830.156 101.085C810.636 101.085 797.715 116.442 797.715 136.124C797.715 155.806 810.854 171.216 830.156 171.216C849.458 171.216 862.597 155.86 862.597 136.124C862.597 116.388 849.676 101.085 830.156 101.085" fill="#A5B4FC"/>
<path d="M953.867 79.1324C967.545 78.9526 980.513 85.1981 988.905 96.0025V33.0092H1013.02V190.952H988.905V176.299C980.513 187.103 967.545 193.349 953.867 193.169C923.806 193.169 900.988 167.485 900.988 136.124C900.988 104.762 923.806 79.1324 953.867 79.1324V79.1324ZM958.246 101.085C938.726 101.085 925.805 116.442 925.805 136.124C925.805 155.806 938.999 171.216 958.246 171.216C977.497 171.216 990.687 155.86 990.687 136.124C990.687 116.388 977.766 101.085 958.246 101.085" fill="#A5B4FC"/>
<path d="M1081.9 79.1324C1095.58 78.9527 1108.55 85.1981 1116.94 96.0025V81.3493H1141V190.952H1116.83V176.299C1108.44 187.104 1095.47 193.349 1081.79 193.169C1051.73 193.169 1028.92 167.485 1028.92 136.124C1028.92 104.762 1051.84 79.1324 1081.9 79.1324V79.1324ZM1086.28 101.085C1066.76 101.085 1053.84 116.442 1053.84 136.124C1053.84 155.806 1067.03 171.216 1086.28 171.216C1105.53 171.216 1118.72 155.86 1118.72 136.124C1118.72 116.388 1105.8 101.085 1086.28 101.085" fill="#A5B4FC"/>
<path d="M184.211 298.999C181.596 299.017 179.023 298.348 176.747 297.059C157.268 285.788 12.9993 195.327 7.55097 192.566C3.40463 190.631 0.573309 186.667 0.087519 182.116V55.232C-0.0197712 50.4957 2.32156 46.0386 6.28216 43.4393L7.32705 42.8422C21.2837 34.1842 68.0047 5.67251 75.3935 1.56742C77.0891 0.56119 79.0202 0.0204978 80.9912 2.38419e-05C82.8392 0.0209347 84.6555 0.481455 86.2905 1.34351C86.2905 1.34351 151.67 43.9618 161.671 47.7683C168.688 50.9924 176.34 52.5993 184.062 52.4705C192.811 52.6534 201.457 50.5434 209.139 46.3502C218.916 41.2001 281.385 1.56742 282.057 1.56742C283.631 0.616115 285.441 0.124862 287.281 0.1493C289.254 0.158957 291.187 0.700428 292.879 1.71669C301.387 6.41886 359.303 41.8719 361.766 43.4393C365.84 45.897 368.309 50.3257 368.259 55.0828V181.967C367.803 186.528 364.962 190.505 360.796 192.416C355.348 195.402 211.527 285.863 191.674 296.91C189.414 298.251 186.839 298.972 184.211 298.999Z" fill="url(#paint0_linear_128:3)"/>
<path d="M183.465 299L184.211 299C186.826 299.018 189.399 298.348 191.674 297.059C211.154 285.788 355.348 195.327 360.796 192.566C364.962 190.654 367.803 186.678 368.259 182.116V55.232C368.284 53.084 367.798 50.9609 366.841 49.0371L183.465 149.724V299Z" fill="url(#paint1_linear_128:3)"/>
<path d="M182.827 297.211L182.088 297.21C179.502 297.228 176.955 296.566 174.705 295.29C155.433 284.14 12.7749 194.643 7.38449 191.91C3.26288 190.019 0.452757 186.085 0.00080779 181.572V56.0397C-0.022979 53.9146 0.457657 51.8141 1.40372 49.9108L182.827 149.525V297.211Z" fill="url(#paint2_linear_128:3)"/>
<defs>
<linearGradient id="paint0_linear_128:3" x1="-0.139655" y1="2.7323" x2="364.651" y2="-0.0930794" gradientUnits="userSpaceOnUse">
<stop offset="1e-07" stop-color="#A5B4FC"/>
<stop offset="0.337553" stop-color="#A5B4FC"/>
<stop offset="0.56729" stop-color="#A5B4FC"/>
<stop offset="0.734375" stop-color="#A5B4FC"/>
<stop offset="0.78" stop-color="#A5B4FC"/>
<stop offset="0.93" stop-color="#A5B4FC"/>
<stop offset="1" stop-color="#A5B4FC"/>
</linearGradient>
<linearGradient id="paint1_linear_128:3" x1="102.341" y1="267.797" x2="474.27" y2="61.8723" gradientUnits="userSpaceOnUse">
<stop offset="0.1875" stop-color="#A5B4FC"/>
<stop offset="0.442708" stop-color="#A5B4FC"/>
<stop offset="0.729167" stop-color="#A5B4FC"/>
<stop offset="0.84375" stop-color="#A5B4FC"/>
<stop offset="1" stop-color="#A5B4FC"/>
</linearGradient>
<linearGradient id="paint2_linear_128:3" x1="138.535" y1="214.128" x2="-41.1925" y2="69.3547" gradientUnits="userSpaceOnUse">
<stop stop-color="#A5B4FC"/>
<stop offset="1" stop-color="#A5B4FC"/>
</linearGradient>
</defs>
</svg>
