<svg width="956" height="301" viewBox="0 0 956 301" fill="none" xmlns="http://www.w3.org/2000/svg">
<path d="M174.818 213.875C177.555 191.505 163.105 177.235 124.965 165.096C106.491 158.81 97.7889 150.578 97.9924 139.23C98.7635 126.668 110.5 117.505 126.066 117.199C136.854 117.414 148.838 120.042 160.491 127.795C161.875 128.665 162.85 128.529 163.637 127.341C164.716 125.61 167.393 121.455 168.294 119.965C168.903 118.992 169.022 117.735 167.479 116.614C165.27 114.979 159.075 111.67 155.749 110.283C146.712 106.51 136.57 104.134 125.755 104.155C102.97 104.251 85.0148 118.627 83.5169 137.811C82.5369 151.654 89.4085 162.898 104.163 171.471C107.289 173.288 124.216 180.002 130.947 182.092C152.125 188.668 163.121 200.457 160.534 214.201C158.185 226.671 145.03 234.724 126.897 234.969C112.52 234.422 99.5819 228.577 89.5496 220.795C89.2955 220.606 88.0355 219.632 87.8643 219.501C86.6237 218.532 85.2701 218.596 84.4462 219.849C83.8357 220.77 79.9589 226.355 78.98 227.821C78.0603 229.112 78.5524 229.822 79.5076 230.614C83.7 234.099 89.261 237.911 93.0538 239.84C103.474 245.138 114.784 248.042 126.817 248.497C134.555 249.02 144.316 247.362 151.598 244.279C164.68 238.742 173.128 227.681 174.818 213.875ZM127.752 16.6848C103.065 16.6848 82.9408 39.8909 81.9985 68.9386H173.506C172.564 39.8909 152.44 16.6848 127.752 16.6848ZM221.479 285.727L220.535 285.734L32.0988 285.706H32.0945C19.2774 285.228 9.85244 274.867 8.56664 262.004L8.44064 259.686L0.0150764 74.8242L0.0161533 74.8231C0.00430753 74.6835 0 74.5428 0 74.4C0 71.4174 2.39715 68.9934 5.37474 68.9397V68.9386H64.7715C66.2275 30.5835 93.8679 0 127.752 0C161.636 0 189.277 30.5835 190.733 68.9386H249.959H250.043C253.07 68.9386 255.521 71.3831 255.521 74.4C255.521 74.4945 255.518 74.5879 255.514 74.6813V74.6846L246.282 260.275L246.198 261.846C245.082 274.869 234.519 285.374 221.479 285.727ZM357.309 162.585C397.89 174.698 413.853 189.849 411.301 214.172C409.729 229.157 400.745 241.331 386.663 247.568C378.901 251.006 368.504 252.959 360.208 252.545C347.44 252.285 335.369 249.418 324.195 243.991C320.158 242.032 314.209 238.139 309.581 234.436L309.565 234.421C307.401 232.606 307.144 231.425 308.623 229.236C309.007 228.643 309.707 227.584 311.326 225.148C312.717 223.058 314.104 220.956 314.171 220.853C315.903 218.246 317.733 218.246 320.257 219.976C320.274 219.989 320.502 220.158 321.152 220.639C321.668 221.02 321.985 221.255 322.044 221.297C333.533 229.871 346.801 234.703 360.026 234.976C378.126 234.419 390.888 226.315 392.94 214.289C395.198 201.062 384.239 189.723 362.835 183.498C355.345 181.319 338.983 175.202 334.416 172.808C318.361 163.87 310.62 151.722 311.425 136.607C312.695 115.682 331.923 99.7956 356.478 99.2661C367.27 99.0577 378.07 101.083 388.475 105.205C392.225 106.692 398.795 110.081 401.166 111.767C403.919 113.706 403.919 115.044 402.577 117.551C402.388 117.878 401.673 118.91 399.818 121.554L399.812 121.563C397.855 124.353 397.268 125.196 397.096 125.482C395.486 127.562 394.136 128.204 391.38 126.545C380.544 119.621 369.558 116.354 357.138 116.322C341.831 116.89 330.589 125.939 330.049 137.941C330.053 148.755 338.647 156.61 357.309 162.585ZM471.138 156.521C495.895 156.521 516.338 176.454 516.431 200.879V248.594C516.431 251.348 515.722 251.997 513.012 251.997H501.638C498.9 251.997 498.219 251.348 498.219 248.594V201.021C498.157 186.292 486.053 174.376 471.138 174.376C456.26 174.376 444.172 186.236 444.057 200.917V248.594C444.057 250.965 443.122 251.998 440.639 251.998H429.238C426.527 251.998 425.82 250.997 425.82 248.594V102.615C425.82 100.109 426.527 99.2124 429.238 99.2124H440.639C443.082 99.2124 444.057 100.158 444.057 102.615V165.438C451.845 159.694 461.291 156.521 471.138 156.521ZM579.911 234.802C597.05 234.802 610.937 221.23 610.937 204.495C610.937 187.759 597.049 174.187 579.911 174.187C562.771 174.187 548.884 187.759 548.884 204.495C548.884 221.23 562.771 234.802 579.911 234.802ZM579.921 156.62C606.98 156.62 628.919 178.06 628.919 204.518C628.919 230.975 606.98 252.417 579.921 252.417C552.862 252.417 530.92 230.975 530.92 204.518C530.92 178.06 552.861 156.62 579.921 156.62ZM882.647 193.399H936.927C933.024 182.351 921.668 174.094 909.546 174.094C896.977 174.094 886.208 181.811 882.647 193.399ZM950.391 210.962C950.31 210.962 950.229 210.96 950.174 210.958H881.531C883.272 219.75 889.327 227.237 897.701 231.425C899.868 232.458 902.231 233.317 904.752 233.992C917.016 236.551 931.093 234.687 941.822 225.182C941.976 225.013 942.266 224.831 942.581 224.555C944.378 222.973 945.644 223.373 947.053 225.128C947.053 225.128 949.068 227.921 952.667 233.633C954.217 236.042 954.103 237.2 951.505 239.87C951.398 239.978 951.195 240.168 950.896 240.431C950.402 240.863 949.813 241.343 949.128 241.859C947.177 243.325 944.842 244.791 942.123 246.156C932.073 251.205 919.685 253.582 904.962 251.814C904.473 251.74 904.083 251.679 903.705 251.616V251.641L902.867 251.486C892.106 249.486 882.44 244.137 875.328 236.33C875.289 236.29 875.287 236.288 875.278 236.275C868.897 229.262 864.793 220.534 863.508 210.958H863.498L863.422 210.335C863.193 208.385 863.075 206.42 863.075 204.444C863.075 177.995 883.87 156.545 909.532 156.545C935.197 156.545 955.989 177.994 955.989 204.444C955.989 204.648 955.988 204.741 955.987 204.797C955.996 204.924 956 205.055 956 205.2C956 208.28 953.637 210.821 950.641 210.957C950.554 210.96 950.472 210.962 950.391 210.962ZM692.141 234.554C708.968 234.554 722.61 220.985 722.61 204.247C722.61 187.509 708.968 173.939 692.141 173.939C675.6 173.939 662.09 187.067 661.68 203.461V205.023C662.095 221.432 675.603 234.554 692.141 234.554ZM692.149 156.372C718.742 156.372 740.301 177.816 740.301 204.27C740.301 230.725 718.742 252.171 692.149 252.171C680.877 252.171 670.205 248.302 661.68 241.361V297.599C661.68 300.123 660.972 301 658.261 301H647.417C644.705 301 643.997 300.102 643.997 297.599V159.773C643.997 157.129 644.705 156.372 647.417 156.372H658.261C660.972 156.372 661.68 157.198 661.68 159.773V167.179C670.205 160.24 680.877 156.372 692.149 156.372ZM775.09 193.399H829.37C825.467 182.351 814.112 174.094 801.989 174.094C789.421 174.094 778.652 181.811 775.09 193.399ZM848.432 204.444C848.432 204.648 848.432 204.741 848.43 204.797C848.44 204.924 848.443 205.055 848.443 205.2C848.443 208.28 846.08 210.821 843.085 210.957C842.998 210.96 842.916 210.962 842.833 210.962C842.753 210.962 842.672 210.96 842.617 210.958H773.974C775.715 219.75 781.771 227.237 790.143 231.425C792.312 232.458 794.675 233.317 797.196 233.992C809.459 236.551 823.535 234.687 834.265 225.182C834.419 225.013 834.709 224.831 835.024 224.555C836.821 222.973 838.087 223.373 839.497 225.128C839.497 225.128 841.512 227.921 845.11 233.633C846.659 236.042 846.545 237.2 843.949 239.87C843.842 239.978 843.639 240.168 843.339 240.431C842.846 240.863 842.256 241.343 841.571 241.859C839.621 243.325 837.286 244.791 834.566 246.156C824.516 251.205 812.129 253.582 797.406 251.814C796.917 251.74 796.526 251.679 796.149 251.616V251.641L795.311 251.486C784.55 249.486 774.883 244.137 767.771 236.33C767.733 236.29 767.731 236.288 767.72 236.275C761.341 229.262 757.236 220.534 755.952 210.958H755.94L755.866 210.335C755.636 208.385 755.518 206.42 755.518 204.444C755.518 177.995 776.314 156.545 801.976 156.545C827.639 156.545 848.432 177.994 848.432 204.444Z" fill="#A5B4FC"/>
</svg>
